<svg version="1" xmlns="http://www.w3.org/2000/svg" width="1226.667" height="1226.667" viewBox="0 0 920.000000 920.000000"><path d="M250.4 17.1c.3 1.7.6 60.9.6 131.5V277h2.4c1.7 0 2.5-.7 2.8-2.3.2-1.2.3-59 .2-128.3l-.1-126.1-2.2-3.2c-2.9-4-4.5-4-3.7 0z"/><path d="M426 16.6c.6 1.6 1 56.1 1 148.5 0 144.6 0 145.9-2 147.9-4.7 4.7-4.6 4.9-49.7-40.2-23.2-23.2-42.2-42.4-42.1-42.7 0-.3 0-1.3-.1-2.1-.1-1.2-.3-1.2-1-.2-.6 1-1.5.5-3.8-2.1l-2.9-3.3-.1 3.4c-.1 2.4.2 3.1.8 2.1.7-1.1.9-1.1.9-.1 0 .8 20.7 22.1 46 47.4l46 46 3.8-.4c2-.3 4.5-.8 5.5-1.2 1.5-.7 1.7-.1 1.8 6.5.2 17.4 1.8 35.1 4.5 50.8 1.8 10.7 1.8 16.2 0 7.8-.5-2.2-1.2-2.7-3.7-2.7-2.8 0-2.9-.1-1.5-1.6 2.6-2.5 3.1-6.4 1.2-9.8-2.3-4.2-91.1-92.9-92.6-92.4-.6.2 4.3 5.8 10.9 12.5 6.5 6.6 11.6 12.5 11.3 12.9-.4.5-.3.6.2.2 1.3-1.1 15.8 14.1 15.2 15.8-.3.8-.2 1.3.2 1.3.4-.1 1.3-.1 2.1 0 1.9.1 23.2 21.7 22.3 22.5-.4.4-.2.6.4.4 1.3-.3 24.7 22.8 25.7 25.5 1.1 2.9-.9 6.4-4.4 7.6-2.2.7-16.5 1.1-44.5 1.1h-41.3l.1-3 .1-3h42.3c41.2 0 42.3-.1 42.1-1.9 0-1.1-.4-1.8-.7-1.6-.4.2-3.7-2.7-7.5-6.5-6.2-6.3-6.7-7.1-5.4-8.7 1.3-1.7 1.3-1.7-.4-.4-1.7 1.4-3.9-.6-27.7-24.4-14.2-14.3-25.7-26.2-25.5-26.5.2-.3-.1-1.2-.7-2-.8-1.2-.8-1.1-.3.5.5 1.7.3 1.7-1.9-.4-1.5-1.4-2.6-3.1-2.6-3.8 0-.8-.4-1.2-.8-.9-.5.3-2.2-.9-3.8-2.6-1.6-1.7-2.3-2.7-1.5-2.3 1 .5 1.2.4.7-.4-.4-.6-1.1-.9-1.5-.6-.9.5-3.9-2.5-4-4-.1-.6-.4-1-.8-1.1-.5 0-1.5-.4-2.3-.7-.8-.4-21.1-.8-45-.9l-43.5-.3-.3-132.3L245 18h-88v156.1c0 85.8-.3 156.6-.7 157.2-.4.7.1.6 1.1-.2 1.6-1.3 2.6-.5 11.6 8.4 5.4 5.4 9.6 10.3 9.3 10.8-.3.6-.1.7.4.4 1.4-.9 3.7 1.9 2.8 3.2-.3.6 0 .9.7.6.8-.3 2.7.8 4.3 2.5 1.6 1.6 3.1 3 3.4 3 .3 0 .6-6.6.6-14.7v-14.8l62.3-.3 62.2-.2v468l-8 .1c-9.3.2-9.6.2-10.4 1-1.3 1.3 1.5 6 4.6 7.9 4.2 2.6 15.6 2.8 19.7.4 2.5-1.5 3-1.5 5.9 0 4.2 2.2 7.8 2 10.2-.4 2-2 2-3.3 2-73v-71l2.7 1.7c2.5 1.7 7.4 1.8 68.3 2 36 .1 71.1.6 78 1.2 6.9.5 15.9 1.2 20 1.6 4.1.3 9.5.7 12 .9 2.5.3 8.6.8 13.5 1.2 5 .3 9.7.8 10.6.9.9.2 7 .6 13.5 1 6.6.4 13.5 1.1 15.4 1.5 1.9.5 6 1.1 9 1.5 3 .3 10.7 1.2 17 2 6.3.8 15.1 1.7 19.5 2.1 4.4.4 9 1.1 10.3 1.5 1.3.5 10.5 2 20.5 3.4s21.2 3.2 24.8 4c3.7.8 7.2 1.5 7.8 1.5.7 0 1.1-2 1.1-5 0-4.2-.3-5-1.8-5-1 0-2.2-.3-2.6-.8-.7-.7-13.4-2.6-25.1-3.8-3.3-.3-6.4-1-7-1.5-.5-.5-3.3-.9-6.1-.9-2.9 0-5.5-.4-5.8-.9-.3-.4-3.8-1.1-7.8-1.4-4-.4-9.1-.9-11.3-1.2-8.7-1.4-19.3-2.6-25-3.1-3.3-.3-6.9-.9-8-1.4-1.1-.5-5.8-1.1-10.5-1.4-4.7-.3-12.3-1-17-1.5-4.7-.6-14.1-1.5-21-2-6.9-.6-15.6-1.3-19.5-1.7-3.8-.3-14-.8-22.5-1-8.5-.3-16.4-.9-17.5-1.4-1.3-.7-25.5-.9-67.8-.8l-65.7.3v-10.8c0-5.9-.4-10.7-.9-10.7s-1.1-3.4-1.3-7.5l-.3-7.5h49.6c40.8 0 49.8.2 50.2 1.4.3.7 2.3 2.2 4.4 3.3 2.1 1.2 6.5 3.5 9.7 5.2 3.6 1.9 7.4 3.1 9.7 3.1 4.5 0 7.1.9 6.3 2.1-.3.5 4.7.9 11.5.9 6.9 0 12.2.4 12.6 1 .3.5 3.6 1 7.3 1 3.7 0 12.1.7 18.7 1.5 6.5.8 14.1 1.5 16.7 1.5 2.6 0 5 .4 5.3 1 .3.5 3 1 6 1s5.7.4 6 1c.3.5 2.7 1 5.3 1 5.4 0 25.2 2.7 29.8 4.1 1.7.5 5.1.9 7.7.9 2.5 0 4.9.4 5.2 1 .3.5 2.3 1 4.4 1 2.1 0 4.1.3 4.4.6.4.4 1.9.8 3.4 1 1.6.1 6 1 9.8 1.8 3.9.9 8.2 1.6 9.7 1.6s3 .5 3.3 1c.4.6 9 1 22.5 1h21.8l.6 2.5c1 3.9 2.6 2.9 2.6-1.5 0-2.2-.4-4-1-4-.5 0-1.1-4.7-1.2-10.8-.2-8.7-.6-10.7-1.8-10.8-.8-.1-2.4-.2-3.5-.3l-2-.2 2-.8c1.1-.5 2.5-.6 3.1-.4 1.3.5 2.4-4.1 2.4-9.7 0-4.9-2.5-5.7-7.4-2.4-1.9 1.3-3.7 2.4-4 2.4-.3 0-4.2 1.7-8.8 3.9-4.6 2.1-10.1 4.5-12.3 5.2-2.2.7-4.4 1.7-4.9 2.1-.6.4-2.5.8-4.2.8-1.8 0-3.5.4-3.8.9-.3.5-2.7 1.2-5.3 1.6-2.7.4-5.3 1.1-5.9 1.6-1.4 1.1-18.7 1.5-20.4.4-.6-.4-3-.9-5.3-1.2-6.9-.8-5.6-1.4 2.9-1.2 4.3 0 11.7-.3 16.4-.7l8.5-.9-12-.5-12-.5 3.8-1.9c2-1 3.7-2.3 3.7-2.8s.4-.7.9-.4c.5.3 1.4-.1 2.1-.9.6-.8 3.2-2.6 5.6-4 2.5-1.4 4.2-3 3.9-3.5-.3-.5 10.7-1 25.3-1.2l25.9-.3 3.5-2.7 3.6-2.8.1-21.7c.1-12 .4-25.4.6-29.8.3-4.4.2-9.9-.1-12.3-.6-4-.8-4.2-4.1-4.2-2.4 0-4.1.8-5.8 2.6-1.6 1.8-2.5 2.2-2.5 1.2 0-.7.5-1.9 1.2-2.6.9-.9.9-1.2-.3-1.2-.7 0-20.1 0-42.9-.1-22.8 0-42.5-.2-43.7-.5-1.2-.4-2.5-1.5-2.8-2.5-.4-1-1.1-1.9-1.6-1.9-1.3 0-1.2 15.7.2 16.5 1.7 1.1 2.2-.2 2-5.2-.1-3.1.2-4.4.9-3.7.6.6 1.1 10.2 1.2 23.4l.3 22.5 3.3 1.1c1.8.5 2.9 1.4 2.5 1.9-.5.4-.3.5.4.2.6-.4 2.3-.3 3.7.3 2.3.8 2.8.7 3.5-1.3.5-1.2.7-4.5.6-7.2-.1-2.8 0-3.5.2-1.8.3 2.5.9 3.3 2.4 3.3 1.7 0 1.9-.8 1.9-9.5 0-8.8-.2-9.5-2-9.5-1.6 0-2 .8-2.3 5.7-.2 3.2-.3-.5-.3-8.3.1-12 .3-13.8 1.5-12.7 1.7 1.8 2.8.7 3.4-3.2.2-1.7.4 8.4.3 22.3-.1 18.7.2 25.2 1.1 25.2.6 0 1.9.7 2.7 1.6 1.2 1.2 1.6 1.2 1.6.2 0-.8.3-.9.8-.3 1.1 1.5 7.6 1.3 8.6-.3.4-.8.8-12.4.7-25.8-.2-21.5 0-24.4 1.3-24.4 1.4 0 1.6 3 1.6 24.3 0 13.4.3 24.6.6 25 .6.6 2.7-1 9.1-7l4.5-4.1.3-18.4c.3-21.6.1-19.8 2-19.8 1.3 0 1.5 2.4 1.5 16 0 15.5.1 16 2.1 16 1.3 0 1.8-.4 1.3-1.2-.5-.8-.2-.9.9-.5.9.3 1.6.3 1.4-.2-.2-.9 2.4-4.7 6.8-10 5-5.9 5.9-8.4 5.1-14.4-.5-4.4-.3-5.6.9-6.1 1.2-.4 1.5.4 1.5 3.9 0 6.6 1.6 6.8 6 .6 1.3-1.9 2.5-3 2.7-2.4.3.9-4.3 8.1-9.5 14.8-7.4 9.6-25.3 29.5-26.5 29.5-.3 0-1.9 1.2-3.5 2.7-1.6 1.6-4.4 3.9-6.2 5.3-1.8 1.4-3.8 3-4.4 3.5-4.3 3.9-17.3 12.4-25.7 16.8-6.9 3.6-9.9 5.7-9.9 6.9 0 2.4-4.1 2.4-19-.1-18-3-21.4-3.5-22.7-3.2-.6.1-1.4-.3-1.8-.9-.3-.5-1.4-1-2.4-1-.9 0-3.8-1.3-6.4-3-2.6-1.6-5.4-3-6.2-3-.8 0-1.5-.4-1.5-.9s-1.4-1.1-3-1.5c-1.7-.3-6.2-2.6-10-5.1-3.8-2.5-7.2-4.5-7.5-4.5-.8 0-11.9-7.6-13.7-9.3-.8-.8-2.3-1.7-3.3-2.1-1.1-.3-4-2.4-6.4-4.6-2.5-2.2-4.7-4-5.1-4-.4 0-3.1-1.9-6.1-4.3-5.9-4.6-6.6-5.2-15.3-13.2-3.3-3-6.3-5.5-6.8-5.5s-1.1-.7-1.4-1.5c-.4-.8-1.1-1.5-1.7-1.5-.5 0-3.8-2.9-7.2-6.5-3.5-3.6-6.7-6.5-7.2-6.5-.6 0-2.1-1.6-3.4-3.5-1.3-1.9-2.7-3.5-3.1-3.5-.5 0-4.1-3.4-8-7.7-4-4.2-9.7-10.1-12.7-13.2-9.1-9.5-15.1-16.8-14.4-17.5.3-.3-.3-.6-1.5-.6-1.3 0-2.2-.6-2.2-1.5 0-.8-.4-1.5-.9-1.5-1.6 0-9.1-10.2-8.4-11.4.3-.6.3-.8-.2-.4-.4.4-3.5-2.5-6.9-6.4-3.3-3.9-7.3-8.5-8.8-10.2-1.5-1.7-3.1-4-3.4-5.1-.7-2-4.3-6.5-10.8-13.5-1.8-1.9-4.1-4.7-5-6.3-2-3-6-3.7-7-1.1-1.2 3.2-.6 57.8.7 60 2.3 4 15.2 19.4 16.3 19.4.6 0 3.5 3 6.4 6.6 6.4 7.9 23.5 25.4 24.8 25.4.5 0 2.2 1.8 3.7 4s3.1 3.8 3.5 3.5c.4-.2 1.9.8 3.3 2.3 1.4 1.5 5.3 5.2 8.7 8.2 3.4 3 6.9 6.3 7.8 7.2.9 1 2.2 1.8 2.8 1.8.7 0 2.2 1.1 3.5 2.5 1.3 1.3 2.9 2.5 3.4 2.5.6 0 2.6 1.5 4.5 3.3 1.9 1.8 4.8 3.9 6.4 4.7 1.6.8 4 2.7 5.4 4.2 1.4 1.4 3.1 2.4 3.8 2.1.7-.2 1.7.5 2.4 1.6.6 1.2 1.7 2.1 2.5 2.1s1.5.4 1.5 1c0 .5.6 1 1.3 1 2.1 0 7.7 3 7.7 4.1 0 .5.8.9 1.8.9.9 0 2.8.9 4.2 2 2.3 1.8 4.2 2 25.3 2 19.3 0 23 .2 24.5 1.6 2.7 2.4 12.2 7.8 17.5 9.8 2.7 1 4.5 2.1 4.2 2.5-1 .9-58.5.9-58.5-.1 0-.4 2-.8 4.5-.8 3.9 0 4.7-.4 5.7-2.5.9-2.1.8-2.8-.7-4.5-1-1.1-2.8-2-3.9-2-1.2 0-3-.7-4-1.5-2.2-1.7-5.6-2-5.6-.5 0 1.9-12.3-.1-16.2-2.6-2.1-1.3-4-2.4-4.3-2.4-.2 0-2.9-1.6-5.9-3.5-3-1.9-5.8-3.5-6.1-3.5-1.6 0-15.8-10.5-19.3-14.3-.9-.9-2.2-1.7-3-1.7-.7 0-1.5-.7-1.8-1.5-.4-.8-1.2-1.5-2-1.5-.7 0-1.8-.9-2.4-2-.6-1.1-1.5-2-2-2s-2-1-3.3-2.2c-1.2-1.3-4-3.7-6.1-5.3-5.6-4.3-27.6-26.3-27.6-27.5 0-.5-.7-1-1.4-1-2.1 0-6.9-6.6-6-8.1.5-.8.3-.9-.5-.4-.8.4-1.8-.1-2.7-1.4-.8-1.2-2.1-2.1-2.9-2.1-.7 0-1.5-.4-1.7-.9-.1-.5-3.7-5-7.8-10-6.2-7.6-7.9-9.1-10-8.9l-2.5.3-.3 139.1-.2 139.2-3.1.4c-1.9.3-3.3 0-3.5-.7-.3-.7-.4-76.4-.2-168.2.3-133.4.6-167.3 1.6-168.6 1-1.2 1-1.6 0-1.9-1-.4-1.3-8.6-1.3-40.3 0-38.9 0-39.8-2-40.6-1.1-.4-1.4-.8-.7-.8.8-.1 1.1-1 .8-2.5-.2-1.4.1-2.7.7-2.9.8-.2 1.3-4.7 1.4-14.3.1-7.6.2-15.3.3-16.9 0-1.7.4-2.6.8-2 .4.5 1.6 1.5 2.7 2.1 1.9 1.1 2 2.4 2.5 46.6l.5 45.4 4.5 5.4c2.5 3 5.2 6.3 6 7.3.8 1.1 2.1 2.5 2.8 3.2.6.8 1.2 2 1.2 2.8 0 .8 1 2.5 2.3 3.9 8.6 9.6 16.9 19.4 30.1 35.8 4.7 5.8 9.2 11.2 9.9 12.1.8.9 2.5 3.1 3.8 4.8 1.2 1.7 2.8 3.1 3.5 3.1.6 0 1.9 1.1 2.8 2.5.9 1.4 4.9 5.9 8.9 9.9s8.1 8.5 9.2 10c1.1 1.4 2.3 2.6 2.8 2.6 1 0 14.7 14.2 14.7 15.2 0 .5.7.8 1.5.8s1.9.9 2.5 2c.6 1.2 2.2 2.5 3.6 3 1.3.5 2.9 2.1 3.6 3.5.6 1.4 1.6 2.5 2.2 2.5.6 0 3.1 1.8 5.5 4s4.6 4 5 4c.3 0 1.7 1.2 3.1 2.7 1.4 1.4 6.1 5.3 10.5 8.6s8.4 6.6 8.8 7.3c.4.8 1.5 1.4 2.4 1.4 1 0 2.8 1.1 4.2 2.4 1.5 1.3 4.2 3.3 6.1 4.4 1.9 1 8.8 5.3 15.3 9.5 6.4 4.2 11.7 7.4 11.7 6.9 0-.4.5.1 1.1 1.1.6.9 1.4 1.5 1.9 1.2.5-.3 1.7-.1 2.7.4 1 .5 3.5 1.7 5.5 2.5 2 .9 4 2.1 4.3 2.6.3.6 1.7 1 3.1 1 1.3 0 2.4.4 2.4 1 0 .5 1.2 1 2.7 1 2.7 0 2.7 0 .7-1.4-1.1-.8-3.6-1.9-5.5-2.4-2.4-.7 5.1-1 26.8-1.1 28.6-.1 33.9-.5 36.3-3.1 1.6-1.7 8-6 8.9-6 .6 0 1.1-.4 1.1-.9s.9-1.1 2-1.4c2.3-.6 2.7-2.7.6-2.7-.8 0-1.7-.6-2-1.3-.5-1-.7-1-1.2 0-.4 1-11.5 1.3-50.2 1.3h-49.7l-9.7-6.3c-5.3-3.4-10.5-6.7-11.5-7.4-1.4-.9 7.3-1.2 40.1-1.2l41.9-.1-2.7-2.1c-2.4-1.9-2.6-2.6-2.6-9.5 0-5.9-.3-7.4-1.5-7.4-1.1 0-1.5 1.2-1.5 4.4 0 8.3-1.5 9.2-8 5.1-3.4-2.2-4-3-4-6 0-2.8-.4-3.5-2-3.5-1.1 0-2 .5-2 1.1 0 .8-.9.9-2.7.3-1.6-.4-20.8-1-42.8-1.3-31.2-.5-39.9-.9-39.8-1.9.2-.6-.3-1.2-1-1.2-.6-.1-4.1-2.8-7.6-6l-6.4-6h37.7c36.9 0 37.7 0 36.6-1.9-.5-1.1-1-4.9-1-8.5 0-5.4-.3-6.4-1.5-6-.8.4-1.5 1.8-1.5 3.3 0 5.1-2 5.5-6.5 1.1l-4-3.9-38.5-.1-38.6-.1-6.8-7c-3.8-3.8-7.4-7-8-7.1-.6-.2 16.9-.5 38.9-.8 34.8-.4 40-.7 39.7-2-.2-1.5 3.1 1.9 4.8 4.9 1.6 2.9 2.1.4 2.5-11.9.2-6.8.8-12.7 1.3-13.2.6-.6 1.8-.8 2.8-.6 1.8.3 1.9 1.7 2.2 18.3l.2 18 3.7 3.7c2 2 3.9 3.5 4.3 3.3.4-.3.8-8.4.9-18.2.1-9.8.4-17.9.7-18.2.2-.2.4 3.2.4 7.7 0 6.6.3 8.2 1.5 8.2 1.5 0 1.7-.9 1.8-8.5 0-7.4-.2-8.5-2-8.5-1.2 0-1.8-.8-1.8-2.4 0-1.9.6-2.5 2.8-2.8l2.7-.5v51.4l2.5 2.3c1.3 1.2 2.2 2.7 1.8 3.3-.3.6-.1.7.5.3.6-.3 1.3-.2 1.7.4 1.7 2.8 2.5.1 2.7-9.3.2-9.5.2-9.7.5-2.4.3 6.9.6 7.7 2.4 7.7 1.8 0 2-.6 1.7-8.3-.2-6.5-.6-8.2-1.8-8.2-1 0-1.7-1.4-2.1-4-.8-5.8-.9-32.5-.1-32.6.4 0 1.7-.2 3-.5l2.2-.4v33.2c0 18.2.3 32.9.6 32.5.4-.3 2.1.5 3.9 1.8 3.7 2.9 4.5 3.1 4.5 1 0-.8.4-1.5.9-1.5.6 0 .7-1 .4-2.3-.3-1.2-.6-6.5-.8-11.7-.1-5.2 0-7.1.2-4.2.3 4.3.7 5.2 2.4 5.2s1.9-.7 1.9-7.9c0-8.4-.8-10.2-3.5-7.5-1.4 1.5-1.5 1.3-1-1.7.3-1.8.8-3.6 1.1-4.1.3-.4-.1-.8-.8-.8-1.1 0-1.1-.2 0-.9.8-.5 1.1-1.9.8-3.7-.2-1.6-.5-2.9-.6-2.9-.1 0-.3-1.6-.5-3.5-.3-2.8-.2-3 .4-1 .4 1.4 1.5 2.6 2.4 2.8 1.5.3 1.7-.7 1.7-8.2 0-7.9-.2-8.6-2-8.6s-2 .7-2.1 5.7c-.1 3.3-.4 4.5-.6 2.8-.8-5.2 1.8-22.5 3.3-22.5 1.9 0 2-13.5.2-14.7-.8-.5-1.3-3.2-1.3-7.6 0-4.7.4-6.7 1.3-6.7.8 0 1.2-1.9 1.2-6s-.4-6-1.2-6c-.9 0-1.3-2-1.3-6.7 0-4.4.4-6.8 1.3-7 .8-.3 1.2-3.3 1.2-10.4 0-8.1-.3-9.9-1.5-9.9-.8 0-1.5-.4-1.5-.9 0-2.1 1.3-4.1 2.6-4.1 1.6 0 1.5-4.9 1.4 100.2 0 33.4.3 61.4.6 62.2.7 1.7 7.4 6 8.2 5.2.3-.3.7-2.9 1-5.8.2-2.9 1-5.9 1.6-6.7.6-.8.7-1.2.1-.9-1.1.7-1.2-.4-1.5-35.5-.1-13.1.1-24.1.4-24.4.3-.4.6 3.3.6 8 0 7.1.3 8.7 1.5 8.7 1.4 0 2-2.5 1.8-7.5-.1-1.1-.2-4.4-.4-7.3-.1-2.8-.6-5.2-1.1-5.2-.4 0-.8.5-.8 1.2 0 .6-.3.9-.6.5-1.2-1.2-2.1-21.7-1.5-33.2.3-4.1.4-4.6 1.1-2.5.7 2.1.8 2.2.9.5.1-1.2-.4-2.6-1.1-3.3-.9-.9-.8-1.2.5-1.2 3.1 0 5.1-10.3 2.7-14-1.7-2.7-3.2.5-3.1 7 0 3.4-.3 6-.6 5.6-.9-.8-.9-44.6 0-44.6.4 0 .7 4 .7 9 0 7 .3 9 1.4 9 .8 0 1.7-.8 2-1.7.9-2.4.5-20.8-.4-19.3-.4.7-1.2 1-1.8.6-.6-.3-1.3 0-1.6.6-.3.7-.4.2-.3-1.2.1-1.9.8-2.6 3-2.8l2.7-.3v85.7c0 47.1.1 85.8.3 86 1.3 1.4 9.3 4.1 10.8 3.7 1.7-.5 1.9-1.5 1.9-9.9 0-7.6-.3-9.4-1.5-9.4-1.1 0-1.5 1.7-1.8 7.2-.3 7.7-.8-81.7-.7-130.2.1-35.6-.2-32.6 3.3-32.8l2.8-.2-.1 13.2c-.1 7.3-.1 14-.1 14.9.1 1.3 1.3 1.5 6.6 1.4 3.6-.1 6.9-.5 7.2-.9.4-.4.6-6.4.5-13.4-.2-7 .1-13.2.5-13.8.5-.5 1.8-1 3.1-1 2.2 0 2.2.2 2.2 14.6v14.5l6.7-.4c8.5-.4 10.3-.4 18.2 0 4.4.3 6.6 0 6.8-.8.3-.8 1.2-.9 2.7-.3 3 1.1 15.8 1.6 17.3.7.7-.5 1.8-1.7 2.4-2.9.7-1.3.7-1.8.1-1.4-.6.3-1.3.2-1.7-.4-.3-.5-.3-1 .2-1 .4 0 .7-4.1.5-9.1-.4-9.7.2-13.9 1.9-13.9.6 0 .9 5.1.8 14.1 0 8.7.3 14.4.9 14.8 1.3.8 10.1.6 12.9-.3 1.7-.6 2-1.2 1.4-3.9-1.1-5.2-.3-23 1.2-23.9.9-.6 1.3 2.6 1.7 14l.5 14.7h3c1.7 0 5-.3 7.5-.6 2.5-.4 8-.4 12.3 0 6.5.5 8.1.4 9-.9 1.3-1.6 4.2-2.7 3.3-1.1-.4.5-.1 1.3.5 1.6 1.6 1 11.9.7 13.3-.4 1.6-1.4 2.5-1.3 4 .1 1.6 1.6 11.3 1.6 14.3 0 1.4-.8 2.4-.9 2.8-.2.3.5.1 1-.4 1-.6 0-1.1.5-1.1 1.1 0 .8.4.8 1.3.1.7-.6 4.1-1 7.7-1 3.8.1 6.5-.3 6.8-1 .2-.7 1.2-.8 3-.2 1.5.5 5.3 1.1 8.5 1.3 4.6.4 5.9.1 6.5-1.2.5-.9.7-78.3.7-172.1-.1-93.8.2-171.3.7-172.2.5-1 .4-1.9-.2-2.3-.6-.4-.8-1.1-.5-1.6.4-.5-.5-2-1.9-3.4-1.5-1.4-2.6-2.8-2.6-3.1 0-.9-2.8-3.4-3.8-3.4-1.4 0-4.3-3.6-3.5-4.4.4-.4 0-.4-1 0-1.6.6-1.7 11.3-1.7 180v179.5l-2-1.1-2.1-1.1.3-175.8c.3-147.2.5-176.1 1.7-177.4 1-1.3 1-1.7.1-1.7-.7 0-1-.7-.6-1.5.3-.8 0-1.5-.5-1.5-.6 0-.9-.9-.6-2 .3-1.1.1-2.3-.4-2.6-.5-.3-.6-1-.3-1.6.4-.6.2-.8-.4-.4-.5.3-1.2.2-1.4-.2-.4-1.2-9.5-7.2-10.7-7.2-.8 0-1.1 54.9-1.1 187 0 165.6-.2 187-1.5 187-.8 0-1.6-.8-1.6-1.8-.1-.9-.3-86.1-.5-189.2s-.4-188.1-.5-188.8c-.1-.7-.7-1.1-1.3-.9-1.1.4-2.5-.5-6-4-1.2-1.2-3.1-2.1-4.2-1.9-1.9.3-1.9 1.7-2.2 58.1-.2 50.8-.4 57.6-1.7 56.5-.8-.7-1.2-1.7-.8-2.3.4-.6.1-.7-.7-.2-1 .6-1.1.3-.5-1.6.5-1.3.8-5.1.8-8.4-.1-13-.1-98.2.1-102 .1-3.4-.3-4.2-2.7-5.3-1.5-.7-3.6-1.5-4.6-1.7-1-.2-2.8-.9-3.9-1.6-1.2-.7-2.4-1-2.8-.6-.4.3-.6 24.5-.6 53.7.1 35.2-.2 53-.9 53-.6 0-.7-.5-.4-1 .3-.6-.1-1-.9-1-1.4 0-1.5-6.2-1.6-53.2 0-33-.4-53.6-1-54.3-.5-.7-.7-1.5-.3-1.8.3-.4.1-.7-.6-.7s-.9-.5-.5-1.3c.6-.9.4-.9-.8.1-1.1.9-2.3 1-4.2.2-1.5-.5-3.6-1-4.7-1-1.9 0-1.9 1.2-1.9 48.6 0 43.5-.2 48.6-1.6 48-1.9-.7-1.1.7 3.1 5.3 1.6 1.8 2.9 3.7 2.7 4.2-.1.5.1.8.5.8 2-.3 2.5.2 1.4 1.5-.9 1-.7 1.7.6 2.7.9.8 1.4.9 1 .2-.4-.6-.3-1.4.2-1.7 1.2-.8 3.4 2.1 2.8 3.7-.3.7.3 1.9 1.4 2.5 1.5 1 1.7.9 1.3-.3-.4-.8-.3-1.5.1-1.5 1.1 0 5 5.3 4.7 6.3-.1.5.1.6.6.3 1.2-.7 8.4 6.8 7.5 7.8-.5.4-.3.6.2.4 1.5-.4 6.8 3.9 6.1 5-.3.6.1 1.5.9 2.2.8.7 1.2 1.7.8 2.3-.4.6-.1.7.6.3.9-.6.8-1.3-.5-2.9-1-1.2.2-.3 2.6 2.1l4.5 4.2.2 89.8c.3 94.1.3 94.9-3.9 94.6-.9-.1-1.4.4-1.2 1 .3.7-1.1 3-2.9 5.1-3.2 3.6-3.6 3.8-5.3 2.5-1.7-1.4-1.8-1.4-.6.2 1.1 1.4 1 2-.7 3.7-1.1 1.1-2.7 1.8-3.5 1.5-.8-.3-1.7-.1-2.1.5-.4.7.1.8 1.2.4 1.4-.5 1.3 0-.7 2.2-6.1 7-11.2 11.5-12.2 10.9-.6-.4-.8-.3-.5.4.8 1.2-12.4 14.9-15.6 16.1-1.3.5-7.6 1-14 1-9.8.1-11.7-.1-11.7-1.4 0-.8-.4-1.5-1-1.5-.5 0-.7.7-.3 1.6.5 1.4-4.8 1.6-59.1 1.2l-59.6-.3v84.4l-2.2 1.5c-1.9 1.4-7.5 1.6-41.3 1.5-21.4-.1-39.9-.4-41-.7-2.4-.8-2.9-2.6-1.4-5.4.9-1.6.8-1.9-.2-1.3-.9.6-1.1.2-.6-1.4.7-2.7-1.1-8.1-2.6-8.1h-40.2l-39-.1-5-6.2c-2.7-3.4-5.4-6.5-6-6.9-.5-.4 19.7-.8 45.1-.8 34.4 0 46.3-.3 47.2-1.2 1.6-1.6 1.5-7.6-.2-9.4-1.2-1.1-9.7-1.4-51.4-1.4l-49.9-.1-3.5-3.9c-2-2.1-3.4-4.1-3.2-4.3.2-.2-.7-1.6-2.1-3.1l-2.5-2.7 55.9.3 55.8.3-.2-8.9c-.3-8.3-1.7-13.6-3.7-13.6-.5 0-.7.4-.4.9.3.5-.1 1.1-.8 1.4-.8.3-1.6 1.8-1.9 3.4-.3 2.3-.4 2.1-.6-1-.1-2.7.2-3.6 1.1-3.1.8.5.9.2.4-1.2-.4-1-.9-8-1-15.4-.1-7.4-.1-10.1.1-6 .4 7.7 1.8 10.5 4.9 9.3 1.1-.4 1.4-3.1 1.4-12.5v-11.9l-2.7.3c-2.2.2-2.9 1-3.4 3.3-.4 1.6-.6-34.8-.6-81s.3-84.2.7-84.5c.3-.3.1-3-.5-6-1.2-5.4-1.2-5.5-2.4-2.7-2.2 5.5-8 30.3-9.6 41.2-.9 6-2 12.5-2.3 14.3-.4 1.8-.7-52.4-.6-120.5 0-82.8-.3-124.6-1-126.3-1.4-3.4-3.6-6-5.2-6-1 0-1.1.6-.4 2.6zm304 393.9c0 25.6-.3 31.5-1.3 31.5-1.7 0-1.5 2.9-1.7-31.3-.2-21.4.1-29.1 1-30.2.7-.8 1.4-1.5 1.6-1.5.2 0 .4 14.2.4 31.5zm-291.7-12c.4 2.6.4 3.3-.2 2-.5-1.1-1.1-4-1.5-6.5-.7-5.4.8-1.6 1.7 4.5zm3.6 13.7c1.2 5.1 2.5 10.4 2.8 11.8l.4 2.5-1.3-2.5-1.4-2.5-51.9-.5c-28.6-.3-51.9-.8-51.7-1.3.1-.4.2-3.6.2-7.2V406l50.1.2c47.2.3 50 .2 49.5-1.5-.2-.9-.1-1.7.3-1.7s1.7 4.2 3 9.2zM621 429.6c0 12-.2 13.4-1.5 12-1.1-1.1-1.5-4-1.5-11.9 0-5.8.3-11.2.6-12.1 1.6-4.2 2.4-.4 2.4 12zm-271.5 42.9c2.8 3.5 5.3 6.4 5.8 6.4.4.1.7.5.7 1.1 0 .9-16.2 1.5-17.1.6-.2-.2-.3-3.6-.1-7.5.4-7 .4-7.1 3-7.1 2.1.1 3.8 1.5 7.7 6.5zm23.6 28.7c2.9 3.5 5.8 6.6 6.4 7 .5.4-8.3.8-19.7.8H339v-14H367.7l5.4 6.2zm82.9-3.3c1.6 4 5.7 5.5 15.6 5.5 4.5.1 8.6.4 9 .8.4.5.1.8-.7.8-.8 0-.3.6 1 1.3 3.4 1.7 3.8 3.6.6 3-1.4-.3-2.5-.8-2.5-1.2 0-.4-.9-.7-2-.7s-2 .3-2 .7c0 1.1-71.8 1-72.5-.1-.3-.6-1.2-1-1.8-1-.7 0-.6.4.3 1 1.1.7 1.2 1 .2 1-.8 0-3.6-2.4-6.3-5.3-9.1-9.5-11.6-8.7 26.4-8.7h33.5l1.2 2.9zm-60 28.8c0 .5 2.3 3.2 5 6.1 2.8 2.9 5 5.7 5 6.2 0 .6-7.8 1-19.7 1-22.3-.1-19.5.8-29.3-9.3l-4.4-4.7h21.7c11.9 0 21.7.3 21.7.7zm201.7 26.5c-.3.8-.6.5-.6-.6-.1-1.1.2-1.7.5-1.3.3.3.4 1.2.1 1.9zm-230.6 9.6c3.3 3 5.9 6.1 5.9 6.8 0 .7.8 1.5 1.8 1.7.9.3-6.8.5-17.3.6-11 0-18.4-.3-17.6-.8 1-.6 1-1 .1-1.3-1.8-.6-1.7-10.7.1-11.9.8-.5 5.8-.8 11.3-.8l9.8.1 5.9 5.6zm57.2-4.9c2.7 1 12.7 10.4 12.7 11.9 0 .6.6 1.3 1.3 1.5.6.3-8.1.6-19.4.6l-20.6.1-5.4-5.1c-3-2.8-6.4-5.8-7.6-6.6-1.3-.8-2.3-1.9-2.3-2.4 0-1.1 38.3-1.1 41.3 0zm253.9 44.2c.6.4.8 1.4.5 2.2-.5 1.3-2.7 1.6-12.1 1.6-9.8.1-11.4-.1-11-1.4.4-.8 1-1.2 1.5-.9.5.3.9.1.9-.5 0-.5-.5-1.3-1-1.6-1.5-.9-.9-10.4.7-13.5 1.1-2.2 1.3-1.4 1.3 7.4v9.8l5.9-.4c9.3-.7 9.1-.3 8.8-20.4-.3-13.9-.1-17.4 1-17.4.7 0 1.4-1.2 1.5-2.8.2-1.5.4 6.3.5 17.3.2 13.4.7 20.1 1.5 20.6zm-100.5-11.9c-.3.7-.5.2-.5-1.2s.2-1.9.5-1.3c.2.7.2 1.9 0 2.5zm-175.1 5.3c2.4 2.5 4.8 4.5 5.2 4.5.5 0 2.4 1.3 4.2 3l3.4 3H339v-5.9c0-3.3-.3-6.6-.6-7.5-.6-1.4 2.5-1.6 29.6-1.6h30.1l4.5 4.5zm64-1.8c1.6 1.6 5.8 4.8 9.2 7.3l6.1 4.5-19.6.3-19.7.2-6.9-4.7c-3.8-2.7-8.4-5.7-10.3-6.8-1.9-1.1-3.4-2.3-3.4-2.8 0-.4 9.3-.7 20.8-.7h20.8l3 2.7z"/><path d="M332 119.8c0 56 .3 102.2.8 102.6.4.4.7 1.3.7 1.9.1.7.5 1.1 1.1 1 .6-.1 15.6 14.5 33.5 32.4 17.8 17.9 31.8 32.2 31 31.8-.9-.6-1.2-.4-.7.4.4.6 1.1.9 1.5.7 1.2-.8 7.3 5.9 6.4 6.9-.5.4-.3.5.3.2 1.4-.8 3.7 1.7 2.6 2.8-.4.5-.2.5.4.2 1.4-.8 5.7 3.6 4.7 4.8-.5.4-.3.5.3.2.6-.4 2.2.5 3.5 1.9l2.4 2.6.5-2.9c.3-1.5.5-12.3.4-23.8 0-11.6-.1-76-.2-143.3L421 18h-89v101.8zM628 29.8c-1.4.1-3.5.5-4.7.7l-2.3.5v102h6.5c3.6 0 7.5-.6 8.6-1.3 1.7-1 2.3-1 2.6 0 .7 1.9 15.2 1.7 18-.2 1.9-1.3 2.2-1.3 2.7 0 .4 1.1 2.2 1.5 6.8 1.5 7.5-.1 10.4-1.6 8.4-4.6-1-1.5-1.2-12-1.1-47.9.2-50.7.2-51-5.4-50.2-1.6.3-3.4.1-4.2-.3-.7-.5-2.1-.4-3.1.1-1.7.9-1.8 3.8-1.8 50 0 38.8-.3 49-1.2 48.7-1-.4-1.3-10.8-1.3-47.9 0-30.4-.4-47.7-1-48.1-.6-.5-.4-.8.5-.8.9-.1.5-.6-1-1.5-1.8-1-4.3-1.3-9-.8-3.6.3-7.3.5-8.2.5-1.1 0-1.5.5-1.1 1.4.3.8.9 1.4 1.4 1.4.5 0 .9 20.5.9 48 0 29.3-.4 48-.9 48-.6 0-1.3-.6-1.8-1.3-.4-.6-.8-22.6-.9-48.7-.1-26.1-.2-47.8-.3-48.1-.1-.9-4.1-1.5-7.1-1.1zM607.5 33.4l-4 1.2-.3 48.4c-.2 41 0 48.7 1.2 49.5 1.3 1 12.9.5 14-.5.2-.3.7-1.9 1.1-3.5.5-2.3.4-2.6-.4-1.5-.6.8-1.1 1-1.1.5V80.9c0-25.1-.2-46.4-.6-47.3-.7-1.9-4.2-2-9.9-.2zM678.1 33c-.7.3-1.1 18.6-1.3 50.5l-.3 50H691V87.2c0-33.5.3-46.2 1.1-46.2s.8-.4.1-1.3c-.6-.6-1.1-1.5-1.1-1.9-.5-2.8-1.5-3.8-3.7-3.4-1.3.3-2.6 0-3-.5-.3-.5-1-.7-1.5-.4-.5.4-.9.2-.9-.3 0-1-2.4-1.2-3.9-.2zM619.2 36.5c0 1.6.2 2.2.5 1.2.2-.9.2-2.3 0-3-.3-.6-.5.1-.5 1.8zM589.5 38.4l-6 2.1-.3 45.7-.2 45.6 6.5.4c4.9.2 6.6 0 7-1.1.9-2.2.6-93.4-.3-94.2-.4-.3-3.4.4-6.7 1.5zM572.6 45.5c-1 .8-2.2 1.2-2.6 1-.5-.3-1.1.2-1.4 1-.4 1.1-.9 68.8-.6 84.1 0 1.3 6.8 1 8.2-.4.5-.5.9-1.8.9-2.8 0-1 0-18.8-.1-39.4 0-20.6.1-38.5.4-39.8.3-1.2.1-2.2-.5-2.2-.5 0-.9-.7-.9-1.5 0-1.9-.9-1.9-3.4 0zM557.5 53.4c-3.6 1.3-4.9 3.1-5.1 7.1-.7 12.3-.3 70 .4 70.7.5.5 2.7.8 4.8.6l3.9-.3.2-38.4c.1-21.1-.1-38.9-.5-39.6-.5-.8-1.5-.8-3.7-.1zM540.4 63.7c-1 .7-1.4 1.3-.8 1.3.5 0 .1.5-.8 1.1-1.7.9-1.8 3.6-1.8 33.2v32.2l3.5 1.1c1.9.6 3.2.7 2.9.2-.3-.4.2-.8 1-.8 1.1 0 1.6-.9 1.6-2.8 0-2.1.2-2.4 1-1.2.5.8 1 1 1 .4s-.3-1.4-.7-1.8c-.7-.7-.6-51.4.1-58.3.2-1.8 0-3-.5-2.7-.5.3-.9-.4-.9-1.5 0-2.3-2.8-2.5-5.6-.4zM747.2 63.2c.6 1.8 2.8 2.1 2.8.4 0-.9-.7-1.6-1.6-1.6-.9 0-1.4.5-1.2 1.2zM526.7 75.5c-.8.8-1.7 1.2-2.1 1-.3-.3-.4-.2-.1.2.3.3-.2 1.4-1 2.3-1.3 1.4-1.6 5.8-1.6 26.9 0 13.9.1 25.3.3 25.4.2.1 1.3.8 2.6 1.5s2.2.8 2.2.2c0-.5.9-1 2-1 2.2 0 2.1 2.7 2.1-29.5 0-9.6-.1-20-.1-23 0-5.8-1.3-7-4.3-4zM512.1 90.3c-1.3 1.2-2.1 1.6-1.7.9.4-.6.5-1.2.2-1.2s-1.3 1.4-2.1 3c-1.4 2.7-2 18.7-1.5 38.8 0 .7.4 1.1.9.8.5-.4 1.2 0 1.5.6.5 1 .7 1 1.2 0 .3-.6 1.4-1.2 2.4-1.2s2.2-.4 2.5-1c.9-1.5.7-41.2-.2-42.1-.5-.5-1.9.1-3.2 1.4zM783.8 272.2c-.2 128.9 0 171.6.9 172.3 1.2 1.2 8.6 1.2 12 .1 1.2-.4 2.3-1.6 2.6-2.6.3-1.1.2-1.8-.1-1.6-.4.2-.7-69.9-.7-155.7.1-85.9-.1-159.2-.3-162.9-.3-5.9-.7-7.1-4-10.9-2-2.4-3-4-2.2-3.5.9.4.8.2-.2-.7-1.4-1.1-1.5-1.6-.5-2.7.9-1 .9-1.1 0-.6-.7.4-2.6 0-4.3-.9l-3-1.5-.2 171.2zM496.5 108.2c-1.6 1.8-3.5 4.2-4.1 5.4-1.4 2.3-1.5 17.2-.2 18 1.7 1.1 6.7.6 8-.7 1.4-1.5 2-21.9.6-21.9-.4 0-.8-.9-1-2.1-.3-1.9-.6-1.8-3.3 1.3z"/><path d="M619.2 120c0 1.4.2 1.9.5 1.2.2-.6.2-1.8 0-2.5-.3-.6-.5-.1-.5 1.3zM503 125.9c0 1.1.4 2.1.9 2.1 1.8 0 2.1-1.8.6-3-1.3-1-1.5-.9-1.5.9zM801.5 125c-.3.8-.6 72.9-.8 160.3l-.2 158.7 3 .9c3.5 1.1 8.9.8 12.7-.7 1.6-.7 2.8-.7 3-.2.6 1.8 8.7 1.7 11.3 0 1.4-.9 2.2-2 1.8-2.4-.5-.4-.8-60.8-.9-134.2-.1-98.7-.4-133.8-1.3-134.7-.6-.6-1.1-1.9-1.1-2.9s-.9-2.7-1.9-3.7c-1.8-1.8-3.8-7.6-3.2-9.5.1-.5-.4-1.3-1.1-1.7-3.8-2.4-3.8-4-3.8 142.8 0 94-.3 141.2-1 140.8-.5-.3-1-.2-1 .4 0 .5.5 1.2 1 1.4.6.3.5.4-.2.3-1.1-.2-1.3-29-1.3-147.4 0-81-.2-147.2-.5-147.2-.5 0-.9-1.9-1.2-5.8-.1-.6-.5-1.2-1-1.2-1.5 0-3.8-2.7-3.8-4.5 0-.9-.4-1.4-.9-1.1-.5.3-1.1-.5-1.5-1.7-.3-1.3-1.7-3.6-3-5.2-1.9-2.2-2.6-2.6-3.1-1.5zM481.8 129.1c-1.7 2.9-1.7 2.9.7 2.9 2 0 2.5-.5 2.5-2.4 0-3.6-1.3-3.8-3.2-.5zM515.5 133c-.3.5-.2 1 .4 1 .5 0 1.3-.5 1.6-1 .3-.6.2-1-.4-1-.5 0-1.3.4-1.6 1zM686.7 137c1 1.3-6.1 1.4-63.5.8-35.6-.4-86.5-.7-113.2-.5l-48.5.2V491l38.3.3 38.2.2v-88l73.9.3c59.6.3 74.3.1 76.2-.9 1.3-.7 2.8-1.2 3.2-1.1.5.1.6-.2.2-.8-.8-1.3 10.2-12.3 11.5-11.5.6.4 1 .3.9-.2-.4-2.4.2-3.5 1.8-2.9 1 .4 1.4.4 1 0-.4-.4.1-1.3 1.1-2.1 1-.9 1.1-1.1.2-.7-1.3.7-1.3.6-.1-1 .8-.9 2-1.5 2.7-1.2.9.3 1.1 0 .7-1.1-.5-1.2-.2-1.5 1-1 .9.3 1.9.1 2.3-.5.5-.7.2-.8-.7-.4-.8.4-.3-.2 1.1-1.3 1.4-1.1 2.1-2.1 1.7-2.1-1.1 0 5.5-6 6.8-6.1.5-.1 1.3-.1 1.6-.1.4.1.5-.8.2-1.8-.4-1.4 0-2 1.1-2 1 0 1.4-.4 1.1-1-.3-.5.3-1.5 1.5-2.2 2-1.3 2-1.8 2-88.6 0-74.9.2-87.7 1.5-90.1 1.3-2.6 1.3-3-.1-4.2-.8-.7-1.4-.8-1.3-.3.6 3.5-.5 3.5-4.1-.1-2.1-2.1-3.6-4.3-3.3-4.9.3-.6.3-.8-.2-.4-.9.9-9.3-6.8-10.1-9.4-.3-1.1-.8-1.7-1.2-1.4-.8.9-7.2-5.5-7.2-7.2 0-.7-.4-1.1-.9-.8-1 .7-3.3-1.8-2.6-2.7.3-.4.2-.5-.2-.2-1.1.8-5.3-3.7-5.3-5.7 0-1.1.4-1.7.9-1.4.5.4.8-.1.7-.9-.3-2.1-1.6-3.1-1.6-1.2 0 1.1-.7 1.6-1.9 1.4-2.4-.4-5.1-2.6-5.1-4.2 0-.7-.8-1.9-1.7-2.6-1.6-1.2-1.6-1.2-.6.1zm-83 91H642V315.3l-31.7-.6c-17.5-.4-40.9-.7-52-.7H538V226.7l13.7.6c7.5.4 30.9.7 52 .7z"/><path d="M609.8 231.7c.7.3 1.6.2 1.9-.1.4-.3-.2-.6-1.3-.5-1.1 0-1.4.3-.6.6zM543.7 232.6c-.4.4-.7 17.8-.7 38.6.1 20.8-.2 38.4-.6 39.1-.4.6.1.5 1.2-.4 1-.9 2.7-1.9 3.7-2.2 1.6-.6 1.7-2.9 1.7-32.9v-34.1c0-.9.7-1.7 1.5-1.7 1.3 0 1.5 4.3 1.6 32.7.1 34.2.1 35.9 1.7 37.5 1.8 1.8 7-.1 7.6-2.8.4-1.4.6-13.2.6-26.2-.1-41-.2-39.9 1.5-40.6.8-.3 2.2-.3 3 0 1.3.6 1.5 5 1.5 34.1-.1 18.5.1 33.8.4 34.1 1.3 1.3 7.5.9 8-.5.3-.8 1-1.1 1.6-.8 1.3.8 1.3-.1 0-2.5-1.1-2.1-1.7-58.4-.6-61.8.5-1.5 1.5-2.2 3.2-2.2h2.4l.2 34.2.3 34.2 6.2.3c3.4.1 6.5-.1 6.7-.6.3-.4.6-15.9.7-34.4l.1-33.7h5.8v34.5c0 32.2.1 34.5 1.8 34.6 4.4.3 10.9-.1 13-.7 2.2-.6 3.2-3.4 1.2-3.4-.6 0-1-11.5-1-32.4 0-27.9.2-32.5 1.5-33s1.5 3.7 1.5 34.3v34.9l6.6.4c7.2.3 8.4-.3 8.3-4.8-.1-3.8-.1-41.2 0-58.2l.1-13.2h-39.3c-21.5 0-42.1-.3-45.7-.6-3.6-.3-6.8-.2-7.3.2zM640.1 305.6c0 1.1.3 1.4.6.6.3-.7.2-1.6-.1-1.9-.3-.4-.6.2-.5 1.3zM834.6 191.6c-.3.8-.6 56.8-.6 124.5 0 67.6-.1 123.3-.2 123.7-.1.4.2 1.8.6 3.1.8 2.4.9 2.3 3.2-2 1.3-2.4 2.3-5.4 2.4-6.6 0-1.2.5-2.5 1-2.8.6-.4.8-1.1.5-1.6-.4-.5.1-1.2 1-1.5 1-.4 1.3-1.3 1-2.5-.4-1-.3-2.4.1-3 .7-1.2.7-205.5 0-211.5-.2-1.7-1.1-4.4-1.9-6-.8-1.6-1.7-4-1.8-5.4-.2-1.4-.8-2.8-1.2-3.1-.4-.3-.9-1.5-.9-2.6-.3-2.8-2.4-4.7-3.2-2.7zM340.6 234.2c.3.5 1 .6 1.5.3 1.3-.9 1.1-1.2-.6-1.2-.8 0-1.2.4-.9.9zM847.7 234.7c-1.1 1-.8 165.1.2 165.7.5.3 1.2-1.1 1.6-3.1.4-2.1 1.3-4.9 2.1-6.4.7-1.5 1.6-5.1 1.9-8.1 1.7-16 2.6-24.6 3-27.3.7-4.3 2.2-49.2 1.9-54-.2-2.2-.5-7.8-.8-12.5-.3-4.7-.7-9.6-1-11-.6-3.6-1.6-10.7-2.1-16.3-.7-6.6-1.3-10-3.7-19.2-2.3-8.9-2.2-8.8-3.1-7.8zM362.6 257.3c.3.8 1.1 1.4 1.9 1.4 1.1 0 1.2-.4.4-1.4-.6-.7-1.5-1.3-2-1.3s-.6.6-.3 1.3zM373.9 265.2c-.6 2-.6 3.9 0 4.2.4.3.7-.6.7-2 0-2-.4-3.2-.7-2.2zM151.3 332.7c0 1.6 35.2 38.9 37 39.2.4 0 1-.6 1.4-1.5.4-1-1.3-3.5-5.1-7.3-3.1-3.1-5.4-6-5.1-6.4.3-.4.2-.5-.2-.2-1 .8-8.3-6.7-7.6-7.8.3-.6.2-.7-.4-.4-.5.3-5-3.4-9.9-8.4-4.8-4.9-9.1-8.9-9.5-8.9-.3 0-.6.8-.6 1.7zM49.9 386.2c-.4 14.6-.4 18 .1 18.9.4.6 23 .8 61 .7l60.3-.3 1.7-3c5.1-9.2 6.9-12.3 8.8-15.4 1.2-1.9 1.9-3.8 1.6-4.3-.3-.4-30.4-.8-67-.8H50l-.1 4.2zM184.9 389.7c-.5 1.5-1.3 3-1.7 3.3-.8.6-3.1 4.7-6.6 11.6-1.4 2.8-3.2 5.7-4.1 6.4-.9.7-2.3 2.7-3.1 4.4-2.4 5.3-5.4 10-7.5 11.8-1 .9-1.9 2.3-1.9 3.2 0 .8-1.3 3.1-3 4.9-1.6 1.9-3 3.9-3 4.4 0 .4-1.3 2.4-2.9 4.3-1.5 1.9-3.1 4.5-3.5 5.7-.4 1.2-1.8 3.1-3.2 4.2-1.3 1-2.4 2.5-2.4 3.2 0 .8-1.4 3-3.1 4.9-1.6 1.9-3.6 4.8-4.3 6.5-.8 1.6-3 4.7-5 6.9-2 2.1-3.6 4.3-3.6 4.9 0 .5-2.6 4.2-5.7 8.1-3.2 3.9-6.3 8-6.9 9.2-1.2 2.2-8.6 11.6-13.8 17.4-1.7 1.9-5.6 6.7-8.7 10.5-3.1 3.9-6.5 8-7.5 9.2-1.1 1.2-4.4 5.2-7.4 8.8-3 3.6-6 6.5-6.7 6.5-.7 0-1.3.4-1.3.8 0 1.2-10 12.6-11.4 13-.6.2-3.1 3-5.6 6.2-2.5 3.3-5 6-5.6 6-.7 0-2.7 2-4.5 4.5-1.9 2.4-3.8 4.5-4.2 4.5-.4 0-3.8 3.1-7.5 7-3.7 3.8-7.1 7-7.7 7-.6 0-1.9 1.3-2.8 3-1 1.6-2.4 3-3 3-.7 0-2.1 1.2-3.2 2.7-1.1 1.4-2.6 3.2-3.2 3.9-2.5 2.5-1.5 6.1 2.2 7.8 4.5 2.2 5.7 1.5 16-8.4 4.4-4.2 11-10.6 14.7-14.1l6.7-6.4 37.9.3 38 .2 2-2.5c1.1-1.4 2.4-2.5 2.8-2.5.5 0 2-1.5 3.4-3.3 1.4-1.7 4.2-4.9 6.4-7l3.8-3.7-37.8-.1c-20.9 0-37.3-.3-36.6-.6.6-.2 1.2-1 1.2-1.6 0-.7 1.8-3.1 3.9-5.4 2.1-2.3 4.1-4.7 4.3-5.5.4-1 8.2-1.3 39.9-1.5l39.4-.2 2-2.7c1.1-1.5 3.9-4.9 6.3-7.6 2.3-2.7 4-5.3 3.7-5.9-.4-.5-15.6-.9-37.7-.9H94.7l3.2-3c1.7-1.7 3.1-3.4 3.1-3.8 0-.5 1.1-1.9 2.5-3.2 1.3-1.2 2.2-2.7 1.9-3.1-.3-.5 17-.9 38.3-.9h38.9l4-4.3c3.4-3.5 4.1-4.8 4-8.2l-.1-4-34.8-.3-34.8-.2 1.2-2.3c.7-1.2 2.1-3.1 3.1-4.2 1.1-1.1 1.9-2.3 1.9-2.8-.1-.4.8-1.6 1.9-2.7 1.9-1.9 3.3-2 30.5-2 18.3 0 28.5.4 28.5 1 0 .5.5 1 1.1 1 .5 0 .7-.5.4-1-.3-.6-.2-1 .3-1 1.2 0 1.3-11.9.2-15.7-.5-1.6-.9-2-.9-1.1-.1 1.7-1.9 1.8-23.6 1.8-12.9 0-23.5-.2-23.5-.5 0-.2 1.9-3 4.3-6.1 2.3-3.2 4.1-6.1 4-6.5-.4-1.3 36.8-1.1 38.3.2.8.6 1.4 1 1.4.8 1.1-8.1 1-12.8 0-13.4-.7-.4-7.7-.7-15.6-.6-7.9.1-14.4-.1-14.4-.5 0-1 6.3-9.8 8.2-11.6 1.5-1.3 3.8-1.6 11.1-1.5 6.6.2 9.2.6 9.2 1.4 0 .7.4 1.4 1 1.5.5.2.9-4.4 1-11.2 0-11.2-.1-11.5-2.3-11.8-1.2-.2-1.9-.8-1.6-1.4.4-.6-.1-.6-1.4.1-1.1.6-2.3 1.1-2.6 1.1-1.4 0-.3-2.8 2.2-6.2 2.3-3 3-3.4 3.8-2.1.7 1.1.9.8 1-1.4 1-23.7 1.1-22.8-1.3-23.1-1.7-.3-2.6.4-3.4 2.5zM248.6 388.9c-1.1 1.8.3 6.7 2.5 8.7 1 .9 1.9 2.1 1.9 2.7 0 .5 1.1 2.2 2.5 3.9 1.4 1.6 2.5 3.6 2.5 4.4 0 2 3.9 1.7 4.8-.4.4-.9 2-3.8 3.5-6.4 3.5-5.8 3.2-8.6-1.2-11-4.1-2.3-15.5-3.6-16.5-1.9zM233.4 394c-2.8 1.6-5.4 3.6-5.7 4.4-.4.9-1.2 1.6-1.9 1.6-3 .1-11.4 14.7-15.2 26.3-2.7 7.9-3.6 18.5-3.6 40.2 0 18.4.2 21.6 1.5 22.1.9.4 2.5-.4 3.9-1.9 2.1-2.3 2.5-3.9 3-12.9.7-14 .7-15.4 0-22.6-.5-4.5-.2-8.3 1.1-13 2.2-8.5 5.8-18.2 6.7-18.2.4 0 .5-.7.2-1.4-.3-.8 0-2.3.8-3.2 3.7-4.8 11.8-12.2 15.3-14 4.6-2.4 5.3-4.2 2.9-7.8-2.1-3.3-2.8-3.2-9 .4zM700 395c-.9.6-1 1-.3 1 .6 0 1.5-.5 1.8-1 .8-1.2.4-1.2-1.5 0zM272.6 400.6c-2.4 2.5-3 3.7-2.3 4.8.1.3-.9 1.6-2.2 3-1.4 1.4-2.1 2.6-1.6 2.6s.4.5-.3 1.2c-1.3 1.3-1.7 7.4-.4 8 .9.4 5.2 6.5 5.2 7.4 0 .4 1.6 2.6 3.5 5 1.9 2.3 3.5 4.6 3.5 5 0 .4 1.7 2.8 3.8 5.3 2 2.5 3.7 5.1 3.7 5.7 0 1.5 5.5 7.8 6.2 7.1.3-.4-.6-2.2-2.1-4.1-1.4-1.9-2.2-3.7-1.7-4 .4-.3 2 1.1 3.4 3.1 2 2.8 2.4 4 1.5 5-1.4 1.7.7 4.3 3.5 4.3 1.8 0 1.9-.4 1.3-4.3-.4-2.3-1.1-8-1.5-12.7-.8-9.1-3.6-20.2-5.8-23.5-.7-1.1-1.3-2.7-1.3-3.7s-.5-1.8-1.1-1.8c-.5 0-.8-.4-.4-.9.3-.5-.8-2.4-2.5-4.2-1.6-1.9-3-4.1-3-4.9 0-1.8-4-6-5.7-6-.6 0-2.2 1.2-3.7 2.6zm14.4 19.6c0 .5-3 .8-6.6.8-3.6 0-6.3-.3-6.1-.8.3-.4 3.3-.7 6.6-.7 3.4 0 6.1.3 6.1.7z"/><path d="M242.8 401.7c-1 .2-1.8.8-1.8 1.3 0 .4-1.6 2.7-3.5 5-2 2.4-4.5 6.1-5.6 8.4-1 2.3-2.3 4.8-2.8 5.6-5.4 9.4-9.5 43.1-5.5 44.7 1.8.7 6.8-3.8 8.9-8.1 1.9-3.7 1.9-4.6-.1-4.6-1.4 0-1.4-.3-.4-1.5.7-.8.9-1.5.5-1.5s-.3-.6.2-1.3c.5-.6.8-2.4.7-4-.2-1.5.2-2.7.7-2.7.6 0 .7-.4.4-1-.6-1 2-1.8 7.5-2.2 3-.3 3.8-.9 5.4-4.3 1-2.2 2.3-4.3 3-4.7.6-.4.7-.8.2-.8-.5 0 0-1 1.2-2.3 1.1-1.2 2.4-3.4 2.7-4.9.7-2.7.6-2.7-5.1-3l-5.9-.3 2.5-2.3c3-2.8 4.7-2.8 6.9 0 1.9 2.3 4.1 1.8 4.1-1.1 0-1-1.3-3.5-3-5.6-1.6-2.1-3-4.4-3-5.1 0-1.4-3.9-4.5-5.5-4.3-.5.1-1.8.3-2.7.6zM679.8 407.7c.7.3 1.6.2 1.9-.1.4-.3-.2-.6-1.3-.5-1.1 0-1.4.3-.6.6zM49.5 422.3c-.3 1.2-.5 5.6-.3 9.7l.3 7.5 49.4.5 49.4.5 3.3-4.4c1.9-2.4 3.4-4.9 3.4-5.6 0-.6 1.1-2.2 2.4-3.4 3-2.8 3.9-5.8 1.9-6.5-.8-.3-25.7-.6-55.4-.6H50l-.5 2.3zM578.7 420.6c-1 1-.7 18.5.3 20.9l.8 2 .8-2c1.3-2.9 1.1-20.7-.2-21.2-.5-.2-1.3 0-1.7.3zM598.5 421.2c-.3.8-.5 5.5-.3 10.4.3 7.6.6 8.9 2.1 9.2 1.6.3 1.7-.5 1.5-9.9-.2-7.1-.7-10.4-1.5-10.7-.7-.2-1.5.3-1.8 1z"/><path d="M257.8 425.5c-1 1.3-1.8 2.8-1.8 3.3s-1 2.2-2.2 3.8c-1.2 1.5-2.3 3.5-2.5 4.3-.1.9-.7 1.7-1.2 1.9-.6.2-1.1.8-1.1 1.4 0 .6-1.1 2.6-2.5 4.4-1.4 1.8-2.5 3.6-2.5 4.1 0 .4-1.4 2.2-3 4-1.7 1.8-3 3.8-3 4.5 0 .8-1.3 2.9-3 4.8-1.6 1.9-2.9 3.9-3 4.4 0 .4-1.3 2.5-3 4.6-1.6 2-2.7 3.9-2.5 4.2.3.2-.6 1.5-2 2.8l-2.5 2.3v77.4c0 73.8-.1 77.3-1.8 77.3-1 0-2.3.5-3 1.2-.7.7-1.3.8-1.4.2-.1-.5-.2-32.2-.2-70.4l-.1-69.5-2.7-.3c-2.2-.3-2.8.1-2.8 1.6 0 1.1-.7 2.5-1.5 3.2-1.3 1.1-1.5 10-1.5 69v67.8l-4.2.6c-13.4 2-12.8 2.1-12.9-1-.1-1.6-.1-3.9-.1-5.2.1-1.2-.3-2-.9-1.7-.5.4-.8 1.4-.7 2.3.3 1.6-2.9 1.7-39.2 1.9-21.7.2-41 0-42.9-.3-3.1-.5-3.2-.6-1.5-1.9 1.1-.7 3.9-3.1 6.4-5.4 2.5-2.2 4.9-4.1 5.4-4.1.4 0 .6-.7.2-1.5-.5-1.3 4-1.5 36.4-1.5h37l.1-2.5c0-1.4.1-4.4.1-6.8l.1-4.2-28.1-.3-28-.2 4.6-5c2.6-2.8 5.3-5 6.1-5 .8 0 1.1-.3.8-.6-.3-.4-.2-1.5.4-2.5.9-1.8 2.5-1.9 22.4-1.9 11.8 0 21.5-.3 21.5-.8.5-8.1.3-18.2-.3-18.2-.5 0-.6-.4-.2-.9.3-.5.1-1.2-.5-1.6-.5-.3-1 .1-1 .9 0 1.4-1.7 1.6-10.7 1.5-6 0-10.1-.3-9.3-.7.8-.4 1.6-1.3 1.8-2 .1-.7 1.6-2.8 3.3-4.6 1.6-1.9 3.6-4.2 4.3-5.1.9-1.2 2.9-1.8 6.7-2 3-.2 5.7-.3 6-.4.3-.1.5-6.1.3-13.4-.3-13-.3-13.2-2.6-13.4-1.8-.2-3.9 1.8-10.3 9.8-4.4 5.5-10.4 12.6-13.4 15.7-2.9 3.1-7.2 7.9-9.5 10.7-5.2 6.3-17.4 18.5-18.4 18.5-.5 0-2.2 2-4 4.5-1.7 2.5-3.8 4.5-4.7 4.5-.8 0-1.5.4-1.5.9 0 1.1-11.6 13.1-12.8 13.1-.4 0-1.8 1.4-3.1 3.1-1.3 1.7-2.5 2.9-2.7 2.6-.3-.2-2.6 1.7-5.1 4.2-2.6 2.5-5.1 4.5-5.5 4.4-.4-.2-1.7 1.1-3 2.7-1.2 1.7-2.5 3-2.9 3-.7 0-6.2 4.6-10.7 8.8-1.3 1.2-2.8 2-3.3 1.7-.5-.4-.9-.2-.9.3 0 1.7-4.2 5.3-5.6 4.8-.8-.3-2 .6-2.9 2.5-.9 1.6-2.8 3.5-4.3 4.2-2.8 1.2-4 2.1-9.4 6.9-1.8 1.6-3.6 2.8-4.2 2.8-.6 0-2.4 1.4-4 3s-3.2 2.7-3.6 2.5c-.4-.3-1.9.6-3.2 1.8C35.9 670 18.4 681 17 681c-.6 0-1 .4-1 1 0 .5-.6 1-1.2 1-2.2 0-6.8 4.6-6.8 6.7 0 1.1 1.4 3.2 3.1 4.7l3.1 2.8 4.6-2.4c2.6-1.2 6.5-3.5 8.7-5 3.8-2.5 8.9-5.8 16-10.3 7-4.5 15.1-10.1 16-11.1.6-.5 2.7-2.1 4.8-3.5 2-1.3 4-3.2 4.3-4.2.5-1.6 3.7-1.7 49.5-1.7 28 0 49.7-.4 50.7-.9 1.7-.9 15.6-4 20.6-4.5 1.4-.1 2.9-.6 3.3-.9.3-.4 2.3-.7 4.4-.7 2.1 0 4.1-.5 4.4-1 .3-.6 2.6-1 5-1s4.6-.4 4.9-.8c.3-.5 1.8-.9 3.3-1 1.6 0 6.9-.8 11.8-1.6 5-.9 10.6-1.6 12.5-1.6 2 0 4-.4 4.5-.9.6-.5 3.7-1.2 7-1.5 3.3-.3 8.7-.8 12-1.1 3.3-.3 6.7-.9 7.5-1.2.8-.3 3.1-.7 5-.9 1.9-.1 5.6-.5 8.3-.9l4.7-.6V661l-2.7.1c-1.6 0-3.9.2-5.3.4-10.2 1.5-20.8 2.7-28 3.2-4.7.3-8.9.9-9.5 1.4-.5.5-3.2.9-6 .9s-5.5.4-6 .9c-.6.5-3.5 1.1-6.5 1.4-10 .8-23.5 2.8-25.2 3.8-1 .5-3.3.9-5.1.9-1.8 0-3.7.4-4.2.9-.6.5-3 1.1-5.5 1.4-2.5.3-7 1-10 1.6-3 .6-7 1.2-8.7 1.3-1.8.1-3.3.6-3.3 1s-1.5.8-3.4.8-3.8.5-4.1 1c-.3.6-1.6 1-2.7 1-1.2 0-3.5.4-5.2.9-1.7.5-6.7 1.7-11.1 2.7-4.4.9-8.9 2-10 2.4-2.8 1.1-8.8 2.7-17.3 4.6-4 .9-7.5 2.1-7.8 2.5-.3.5-1.8.9-3.5.9-1.6 0-3.7.4-4.7.9-.9.5-3.7 1.4-6.2 2.1-2.5.7-5.2 1.5-6 1.9-.8.4-4.2 1.6-7.5 2.5-3.3 1-6.8 2.2-7.7 2.7-1 .5-2.9.9-4.3.9s-2.5.4-2.5.8-2.8 1.6-6.3 2.5c-3.4 1-7.9 2.7-10 3.7-2.2 1.1-4.4 2-5 2-2 0-15.9 5.3-25.4 9.7-4.5 2.1-4.4 5.2.3 8.8 3 2.3 3.9 2.6 5.7 1.6 2.2-1.1 12.3-4.8 27.4-10.2 4.5-1.5 9-3.3 10-3.9 1-.5 5.8-2.1 10.7-3.5 4.8-1.3 9.3-2.9 10-3.4.6-.5 2.9-1.2 5.1-1.6 2.2-.4 4.5-1.1 5-1.5.6-.4 2.8-1.1 5-1.5 2.2-.4 4.5-1.1 5.1-1.6.9-.8 6.9-2.4 18.4-5.1 2.5-.6 5-1.4 5.5-1.7.6-.4 3.7-1.4 7-2.1 3.3-.7 9.4-2.2 13.5-3.3 6.2-1.6 23.1-5.5 31.5-7.3 1.1-.2 5.6-1.3 10-2.3 6.5-1.6 17.3-3.9 24.8-5.4.7-.1 1.2.4 1.1 1-.1.7-.2 26.7-.2 57.8L207 798h-6.4c-9.9 0-12.4.7-11.8 3.5.2 1.3 1.5 3.4 2.9 4.7 2 1.9 3.8 2.4 10.2 2.6 5.6.3 8.7 0 10.7-1.1 2.4-1.3 3.3-1.3 6.7-.1 5.3 1.9 7.3 1.8 9.7-.6 2-2 2-3.3 2-59.4 0-58.3-.2-61.7-3.8-65.9-.8-.9-1.1-1.7-.5-1.7.5 0 5.6-.7 11.4-1.5 5.7-.8 12-1.6 13.9-1.9 1.9-.3 6-.9 9-1.5 3-.5 11.4-1.5 18.5-2.1 7.2-.7 13.6-1.7 14.2-2.2.7-.6 1.9-.8 2.6-.5 1.1.4 1.4-3.2 1.6-18.6.2-15.5 0-18.8-1.1-18-1.6 1.1-62.7 1.7-64.5.6-.6-.5-1.3-3.8-1.5-7.6l-.3-6.7H298l-.1-8.3c0-4.5-.3-7.6-.6-7-.4 1-8 1.3-33.4 1.3H231v-5.9c0-3.3-.3-6.6-.6-7.5-.6-1.4 2.8-1.6 33.5-1.6h34.2l-.2-10.5c-.1-5.8-.5-10.5-1-10.5s-.9.4-.9 1-11.6 1-32.7 1c-21.6 0-32.3-.4-31.3-1 1-.6 1.1-1 .3-1-.9 0-1.3-2-1.3-6.4v-6.5l33 .1c18.2 0 33.3-.1 33.5-.4.5-.4.6-11.9.3-15.9-.1-1.2-.9-1.4-3.7-1-2 .3-16.9.4-33.2.1l-29.5-.5-.3-6c-.1-3.3-.5-6.3-.7-6.7-.3-.5 14.8-.8 33.4-.8h34l.5-2.8c.7-4.2-.1-13.5-1.4-14.3-.8-.4-.7-.8.2-1.2.9-.3 1-.6.2-.6-.6-.1-1.5.3-1.8.9-.4.6-12.3 1-32.6 1H231v-14h65v2.2c0 2.6.8 1.9 1.7-1.3 1.1-4.7 1.5-10 .9-12.4l-.6-2.5h-30.5c-29.5 0-33.4-.4-28.6-2.9 1-.6 2.9-3.1 4.1-5.6 1.2-2.5 2.6-4.5 3.1-4.5.6 0 .7-.5.4-1-.4-.7 6.4-1 19.8-1h20.5l3.8 5.6c2.1 3.1 4.6 6 5.6 6.5 1.5.8 1.8.5 1.8-1.9 0-1.5-.5-3.3-1.2-4-.7-.7-.9-1.2-.5-1.2s-1.3-2.5-3.8-5.5c-2.5-3.1-4.5-6.1-4.5-6.7 0-.7-1.5-2.8-3.4-4.8-1.9-1.9-4.3-4.9-5.3-6.6-1.8-3.1-6.2-9.3-12-17.1-1.8-2.4-3.3-5-3.3-5.8 0-2.4-4.3-1.7-6.2 1zm13.7 19.5c.9 1.7 1.9 3 2.4 3 .6 0 3.1 4.2 3.1 5.3 0 .1-4.9.3-11 .4-6 .1-11-.2-11-.5 0-.4 1.1-1.9 2.5-3.4s2.5-3.3 2.5-4.1c0-1.5 2.7-4.2 5-4.9 2.2-.8 4.8.9 6.5 4.2zM223 682.6c-.6 1.5-1 24.7-1 59 0 54.9 0 56.4-1.9 56.4-1.1 0-2.6.3-3.5.6-1.4.5-1.6-5.2-1.8-55.8-.3-52.8-.4-56.6-2.1-58.2-1-1-1.6-2.1-1.3-2.3.7-.8 6.7-2.1 9.8-2.2 2.5-.1 2.7.1 1.8 2.5zM891.6 448c.5 1.4.9 23.1.9 48.3v45.9l-2.4 1.9c-2.2 1.8-4.5 1.9-47.1 1.9-41.9 0-44.9.1-45.3 1.7-.4 1.7-.5 1.7-.6 0-.1-1.4-1.1-1.7-5.6-1.7H786v40.4c0 22.3.4 41.5.9 42.8.5 1.3 3.4 5.2 6.5 8.8 3.1 3.6 5.6 7.1 5.6 7.8 0 1.6 11.6 15.4 13.9 16.5.9.5 3.6 3.5 6.1 6.7 2.5 3.2 4.9 5.9 5.4 5.9.4.1 3.4 2.7 6.6 5.9 3.2 3.1 8 7.3 10.6 9.2 2.6 1.9 5.8 4.5 6.9 5.6 1.2 1.2 3.6 2.9 5.4 3.8 2.7 1.4 4.2 3.6 2.5 3.6-.9 0-18.8-12.4-19.2-13.3-.2-.4-.8-.7-1.3-.7s-3.2-2.3-5.9-5c-2.7-2.8-5.2-5-5.5-5-1.8 0-29.3-29.6-32.9-35.3-.6-.9-2.1-1.7-3.3-1.7H786v77.9c0 50.9-.3 78.2-1 78.6-.5.3-1 2.3-1 4.4 0 2.6-.7 4.4-2.1 5.7-2 1.8-4.5 1.9-45.3 2.2-23.7.2-44.5 0-46.2-.3-4.7-.8-7.2-3.5-7.6-8-.2-2.8-.8-4.1-2-4.3-2.3-.4-2.3 1.5.1 6 1.1 1.9 1.7 3.9 1.4 4.2-.4.3-.2.6.4.6.6 0 1.3.9 1.6 1.9.2 1 1.7 2.7 3.2 3.7 2.5 1.7 6.1 1.8 48.4 1.7 48 0 50.2-.2 52.2-4.5.5-1.3 2.3-3 3.8-3.9 1.5-.9 2.8-2.2 2.8-3 .1-.8.2-22 .3-47.2.1-25.1.4-45.7.7-45.7.3 0 3 1.2 6 2.6 3 1.4 10.9 3.6 17.6 5 6.7 1.4 14.2 3.1 16.7 3.9 2.5.8 6.3 1.7 8.5 2 2.2.3 5.7 1 7.7 1.6 4.7 1.2 9.6.8 10.3-.8.8-2.2-2.9-4.9-9.1-6.8-3.3-1-6.5-2.3-7.1-2.8-.7-.5-1.3-.7-1.3-.3 0 .4-1.4-.1-3-.9-1.7-.9-3.5-1.3-4-1-.6.3-1 .1-1-.4 0-.6-.8-1.1-1.8-1.1s-2.4-.6-3.1-1.3c-1.1-.9-1.3-.9-.7 0 .4.8.1 1.3-.8 1.3s-1.6-.4-1.6-.9c0-.4-1.2-.8-2.7-.9-4.4 0-4.9-.2-3.3-1.2 1.2-.7.7-1.2-2.4-2.5-2.1-.9-4.3-1.4-4.9-1.2-.7.3 0 .8 1.6 1.2 1.5.4 2.7 1.2 2.7 1.7 0 .6-1.1.8-2.7.4s-4.1-1-5.8-1.3c-1.6-.3-3.4-.9-4-1.3-.5-.4-3.6-1.1-6.8-1.4l-5.7-.7.1-23.5c0-21.8.2-23.4 1.7-22.3.9.7 2.2 1.9 2.9 2.7 15.9 18.8 38.1 38.9 49 44.5 1.7.9 3.7 2.2 4.5 2.9.7.7 3.1 2.1 5.3 3.2 2.2 1 4.7 2.2 5.5 2.7 1.9 1.1 6.4 3 9.2 3.9.4.1 2.9.8 5.4 1.6 6.2 1.8 8.9 1.8 13.5-.4 6.9-3.1 6.1-5.8-3.8-12.7-26.9-18.8-50.7-58.6-70.7-118.5-4.8-14.4-8.6-27.3-10.3-34.8l-.5-2.2h42.3c38.7 0 42.6-.2 44.5-1.8 4.3-3.5 4.4-4.2 4.4-51.4 0-48.1-.1-48.5-4.9-51.7-2.3-1.5-2.3-1.5-1.5.9zm-90.9 107.8c.6 2.6 2 7.8 3.1 11.7 1.1 3.8 2.6 9 3.2 11.5.7 2.5 1.8 5.9 2.6 7.7.8 1.7 1.4 3.8 1.4 4.6 0 .9.4 1.8.9 2.1.5.4 1.2 2.4 1.6 4.6.4 2.2 1.1 4.2 1.6 4.6.5.3.9 1.3.9 2.2 0 .9.6 2.9 1.4 4.4.8 1.5 1.7 4 2.1 5.7.4 1.7 1.1 3.1 1.6 3.1.6 0 .9.6.8 1.2-.3 1.2 3.5 9.8 8.2 18.9 1.1 2 1.9 4.4 1.9 5.2 0 .8.4 1.7.8 1.9.9.3 1.3 1.1 6.2 10.5 1.4 2.6 3.1 5.4 3.8 6.1.6.7 1.2 1.8 1.2 2.4 0 .5 1.6 2.9 3.5 5.2 1.9 2.4 3.5 4.7 3.5 5.1 0 .7 3.2 4.9 9.5 12.5 1.1 1.3 4.7 5.1 8 8.3 5.8 5.7 5.9 5.8 2 3.7-4.7-2.6-4.8-2.7-14.2-11.9-4-3.9-7.3-7.5-7.3-8.1 0-.5-.7-1-1.5-1s-1.5-.8-1.5-1.8c-.1-.9-1.9-3.5-4-5.7-2.2-2.2-4-4.8-4-5.8 0-.9-.4-1.7-1-1.7-1 0-2.4-2.5-7.3-12.6-1.6-3.3-3.2-6.7-3.8-7.6-.5-1-.9-2.4-.9-3.2 0-.8-.6-1.6-1.4-1.9-.7-.3-1.6-2.2-2-4.1-.4-2-1.1-3.6-1.6-3.6-.6 0-1-.7-1-1.6 0-.9-.6-3-1.4-4.7-.8-1.8-2.4-6.1-3.5-9.7-1.2-3.6-2.6-7.4-3.1-8.5-.5-1.1-1.3-4-1.9-6.5-1.5-7.1-3.2-13.3-4.1-15.5-1.3-3.1-7-29.2-7-31.9 0-3.1 1.4-.8 2.7 4.2zm-3.3 4c.3 1.5.8 3.8 1 5.2 2 10.4 7.3 32 11.8 47 3.2 10.7 14.7 39.2 17.8 44 .5.8 1.6 3 2.5 4.8 2.2 5 13.9 22 19 27.7 10.4 11.6.5 5-14.2-9.4-12.8-12.5-27.9-29.7-31.8-36-.5-.9-1.2-1.8-1.5-2.1-.3-.3-2-2.5-3.7-4.9l-3.2-4.4-.1-37.9c0-23.4.3-37.7.9-37.4.5.4 1.2 1.9 1.5 3.4zM188.4 449.5c.4 2.4 1.6 3 1.6.7 0-1.2-.4-2.2-.9-2.2s-.8.7-.7 1.5z"/><path d="M585 451.5c-.2 9.8.1 88 .4 88.2.2.2 23.6.4 52 .4H689V805l44.8-.2 44.7-.3.5-132 .5-132 53.5-.2 53.5-.2.5-44.2c.3-29.1.2-44.3-.5-44.5-2.5-1-301.5-.8-301.5.1zM49.6 455.6c-.3.9-.6 2.8-.6 4.4 0 6.4-2.7 6 41.3 6h40.1l2.8-2.7c1.5-1.5 2.8-3.3 2.8-4 0-.8.3-1.2.8-1 .4.3.8-.6.8-1.9l.2-2.4H94c-39 0-43.9.2-44.4 1.6zM188.5 471.5c.2 3.6 1 3.9 1.3.5.1-1.7-.1-3-.6-3-.4 0-.7 1.1-.7 2.5zM82.3 479.8L50 480l-.5 2.3c-.4 1.3-.5 4.6-.3 7.3l.3 4.9 29.9.3c29.6.2 30 .2 32.3-2 1.3-1.2 2.3-2.6 2.3-3.1s1.1-2.2 2.5-3.9c2.5-3 3.3-5.8 1.6-5.8-.5 0-1.5-.1-2.3-.3-.7-.1-15.8-.1-33.5.1zM562.9 481.7c-.2 7.2.3 13.8 1.2 14.1.5.2.7.9.3 1.5-.3.7.2.3 1-.7 1.9-2.4 2.2-14.6.4-16.4-1.9-1.9-2.8-1.4-2.9 1.5zM188.6 499.5c.4.8.8 1.5 1 1.5.2 0 .4-.7.4-1.5s-.4-1.5-1-1.5c-.5 0-.7.7-.4 1.5zM188.5 504c-.3.5-.1 1 .4 1 .6 0 1.1-.5 1.1-1 0-.6-.2-1-.4-1-.3 0-.8.4-1.1 1zM69.3 508.7c-19.2.3-19.3.4-19.4 2.6-.1 2.1-.1 10.9 0 13.4.1 1 4.2 1.3 17.1 1.3 18.9 0 16.9.7 24.4-8.3 2.2-2.5 4.2-4.4 4.5-4.2.4.2.8-.7.9-2 .1-1.8-.5-2.4-2.9-2.9-1.8-.3-3.7-.5-4.3-.4-.6.2-9.8.4-20.3.5zM502 517.5c0 6.9.3 8.5 1.5 8.5s1.5-1.6 1.5-8.5-.3-8.5-1.5-8.5-1.5 1.6-1.5 8.5zM532.7 509.6c-.4.4-.7 4.3-.7 8.6 0 7.2.2 7.8 2 7.8 2 0 2.1-.5 1.8-8.2-.3-7.5-1.2-10-3.1-8.2zM50 548.5v8.5h3.4c3 0 4.5-1.1 10.6-7.1 4.4-4.3 6.9-7.6 6.6-8.5-.4-1.1-2.8-1.4-10.6-1.4H50v8.5zM563 549.1c0 6.8.3 9 1.3 8.7.8-.3 1.3-3.3 1.5-9.1.2-7.3 0-8.7-1.3-8.7-1.2 0-1.5 1.6-1.5 9.1zM297.2 563c0 1.9.2 2.7.5 1.7.2-.9.2-2.5 0-3.5-.3-.9-.5-.1-.5 1.8zM188.6 563.5c.4.8.8 1.5 1 1.5.2 0 .4-.7.4-1.5s-.4-1.5-1-1.5c-.5 0-.7.7-.4 1.5zM188.5 596c.3.5.8 1 1.1 1 .2 0 .4-.5.4-1 0-.6-.5-1-1.1-1-.5 0-.7.4-.4 1zM297.2 598c0 1.4.2 1.9.5 1.2.2-.6.2-1.8 0-2.5-.3-.6-.5-.1-.5 1.3zM50 613v7.1l22-.1c12.8-.1 22-.5 22-1.1 0-.5.5-.9 1-.9.6 0 2.7-1.7 4.8-3.8 2-2.1 5.1-4.8 6.7-6l3-2.1-29.7-.1H50v7zM297.2 624c0 1.4.2 1.9.5 1.2.2-.6.2-1.8 0-2.5-.3-.6-.5-.1-.5 1.3zM546 625c0 .4.7 1.1 1.6 1.4 1.9.7 5.9.8 5.2.1-1-1.1-6.8-2.3-6.8-1.5zM297.1 630.6c0 1.1.3 1.4.6.6.3-.7.2-1.6-.1-1.9-.3-.4-.6.2-.5 1.3zM562.8 630.7c.7.3 1.6.2 1.9-.1.4-.3-.2-.6-1.3-.5-1.1 0-1.4.3-.6.6zM50.4 634.9c-.2.2-.4 4.4-.4 9.3v8.9l2.3-1.2c1.2-.7 3.3-2.3 4.6-3.5 1.3-1.3 2.9-2.4 3.6-2.4.7 0 1.5-.7 1.9-1.5.3-.8 1.1-1.5 1.8-1.5s1.9-.9 2.6-2c.7-1.1 1.7-2 2.2-2 1.2 0 5.3-4 4.3-4.1-3.3-.3-22.6-.3-22.9 0z"/><path d="M661.8 662.7c.7.3 1.6.2 1.9-.1.4-.3-.2-.6-1.3-.5-1.1 0-1.4.3-.6.6zM668 663.9c0 .5.9 1.1 2 1.4 2.4.6 2.7-.8.4-1.7-2.1-.8-2.4-.8-2.4.3zM677 666.1c0 .5 1.1.9 2.5.9s2.5-.2 2.5-.4-1.1-.6-2.5-.8c-1.4-.3-2.5-.1-2.5.3zM297.2 680c0 1.4.2 1.9.5 1.2.2-.6.2-1.8 0-2.5-.3-.6-.5-.1-.5 1.3zM297.1 687.6c0 1.1.3 1.4.6.6.3-.7.2-1.6-.1-1.9-.3-.4-.6.2-.5 1.3zM297.2 695c0 1.4.2 1.9.5 1.2.2-.6.2-1.8 0-2.5-.3-.6-.5-.1-.5 1.3zM297.2 703c0 1.4.2 1.9.5 1.2.2-.6.2-1.8 0-2.5-.3-.6-.5-.1-.5 1.3zM800.8 701.7c.7.3 1.6.2 1.9-.1.4-.3-.2-.6-1.3-.5-1.1 0-1.4.3-.6.6zM809.5 705c.3.5 1.3 1 2.1 1s1.2-.5.9-1c-.3-.6-1.3-1-2.1-1s-1.2.4-.9 1zM297.2 711c0 1.4.2 1.9.5 1.2.2-.6.2-1.8 0-2.5-.3-.6-.5-.1-.5 1.3zM679.1 715.6c0 1.1.3 1.4.6.6.3-.7.2-1.6-.1-1.9-.3-.4-.6.2-.5 1.3zM297.2 719c0 1.4.2 1.9.5 1.2.2-.6.2-1.8 0-2.5-.3-.6-.5-.1-.5 1.3zM297.1 723.6c0 1.1.3 1.4.6.6.3-.7.2-1.6-.1-1.9-.3-.4-.6.2-.5 1.3zM297.2 731c0 1.4.2 1.9.5 1.2.2-.6.2-1.8 0-2.5-.3-.6-.5-.1-.5 1.3zM297.1 744.6c0 1.1.3 1.4.6.6.3-.7.2-1.6-.1-1.9-.3-.4-.6.2-.5 1.3zM297.1 748.6c0 1.1.3 1.4.6.6.3-.7.2-1.6-.1-1.9-.3-.4-.6.2-.5 1.3zM679.1 751.6c0 1.1.3 1.4.6.6.3-.7.2-1.6-.1-1.9-.3-.4-.6.2-.5 1.3zM297.2 759c0 1.4.2 1.9.5 1.2.2-.6.2-1.8 0-2.5-.3-.6-.5-.1-.5 1.3zM659.5 824.3c-2.7 4.5-5.1 8.5-5.3 8.9-.2.5 2.3.8 5.6.8 5.7 0 5.9-.1 7.7-3.4 1.1-1.9 2.2-3.3 2.5-3.1.4.2.7-.1.7-.8 0-.7 1.2-3.1 2.6-5.4 1.5-2.4 2.7-4.5 2.7-4.8 0-.3-2.6-.5-5.7-.5l-5.8.1-5 8.2zM90.7 841.7c-.4.3-.7 13.7-.7 29.7v29.1l3 4.7 3 4.8h23.8c13.1 0 24.1-.2 24.3-.4.2-.2.3-4.3.1-9l-.3-8.6H102v-7h37v-18.5l-18.5.3-18.5.3V859h21c20.3 0 21-.1 21.1-2 0-1.1 0-5 .1-8.8v-6.7l-26.4-.3c-14.5-.1-26.7.1-27.1.5zM154.1 845.9l-3.1 4.9.2 16.8.3 16.9 21.3.3 21.2.2v7h-43.1l.3 8.7.3 8.8 24.1.3 24.1.2 2.7-4c2.6-3.9 2.6-4.2 2.6-21.5V867h-42v-8h41.9l.3-8.6c.2-4.7.1-8.8-.1-9-.2-.2-11.1-.4-24.2-.4h-23.7l-3.1 4.9zM211.5 841.9c-.3.6-.5 4.6-.4 9l.1 8.1h21.9l-.1 25.2-.1 25.3 5.5.3 5.6.3V859h21.9l-.2-8.8-.2-8.7-26.7-.3c-16.3-.1-26.9.1-27.3.7zM272.5 842.3c-.3.6-.4 16.1-.3 34.2l.3 33 5.8.3 5.7.3V893h31v17.1l5.7-.3 5.8-.3.1-29.5.1-29.5-3-4.8-2.9-4.7h-23.9c-18.3 0-24.1.3-24.4 1.3zM315 867v8h-31v-16h31v8zM333.7 841.7c-.4.3-.7 4.4-.7 9v8.3h43v33h-31v-25h-12l.2 21.2.3 21.3 24.2.3 24.2.2 2.7-4.5 2.6-4.5-.1-25.7c-.2-25.5-.2-25.6-2.7-30l-2.6-4.3h-23.7c-13.1 0-24.1.3-24.4.7zM396.4 845.2l-2.9 4.3.1 26c.2 27 .3 29.7 1.4 29 .3-.2 1.4.9 2.4 2.6l1.7 2.9H442l3-4.7 3-4.8v-49.8l-3.1-4.9-3.1-4.8h-42.4l-3 4.2zm39.6 30.3V892h-31v-33h31v16.5zM477.5 842.3c-.3.6-.4 16.1-.3 34.2l.3 33 24.2.3 24.2.2 2.5-4.3c2.3-3.8 2.6-5.5 2.6-13.3 0-7.6-.4-9.5-2.4-12.8l-2.4-4 2.4-3.8c2.1-3.2 2.4-5 2.4-12.9s-.3-9.6-2.6-13.5l-2.6-4.4h-23.9c-18.3 0-24.1.3-24.4 1.3zM520 863v4h-31v-8h31v4zm-.2 25.2l.3 3.8H489v-7.6h15.3l15.2.1.3 3.7zM541.1 845.8l-3.1 4.9v49.8l3 4.7 3 4.8h42.9l2.6-4.3 2.5-4.4v-51.4l-2.6-4.5-2.6-4.4h-42.6l-3.1 4.8zm39.9 29.7V892h-31v-33h31v16.5zM599.5 842.3c-.3.6-.4 16.1-.3 34.2l.3 33 26.8.3 26.7.2v-35h-11v17h-31v-51h-5.5c-3.6 0-5.7.5-6 1.3zM659.5 842.3c-.3.6-.4 16.1-.3 34.2l.3 33 5.8.3 5.7.3V841h-5.5c-3.6 0-5.7.5-6 1.3zM678 875.5V910h37.8l8.1-13 8.1-12.9v-43.2l-5.6.3-5.6.3.1 17.5v17.5l-4.8 7.5-4.8 7.5-10.9.3-10.9.3v-50.6l-5.7-.3-5.8-.3v34.6zM738.7 841.7c-.4.3-.7 15.9-.7 34.5v33.9l5.8-.3 5.7-.3.3-8.3.3-8.2H781v17h11v-60.3l-2.7-4.3-2.8-4.4h-23.6c-13 0-23.9.3-24.2.7zM781 867v8h-31v-16h31v8zM799.7 841.7c-.4.3-.7 15.9-.7 34.5V910h12v-17h8.3l8.2.1 5.1 8.2 5.1 8.2 7.6.3c4.3.2 7.7-.1 7.7-.5s-2.2-4.2-4.9-8.3c-4.8-7.4-4.9-7.5-2.5-7.8 1.6-.2 3.2-1.8 4.9-4.6 2.4-4.1 2.5-4.9 2.5-21.4 0-16.9 0-17.2-2.7-21.7l-2.8-4.5h-23.6c-13 0-23.9.3-24.2.7zM842 867v8h-31v-16h31v8z"/></svg>